<svg width="53" height="45" viewBox="0 0 53 45" fill="none" xmlns="http://www.w3.org/2000/svg">
<path d="M40.2935 43.2693L39.164 44.5806C39.4925 44.8637 39.9152 45.0129 40.3482 44.9991L40.2935 43.2693ZM36.6018 37.3425C36.0095 36.5924 34.921 36.4644 34.1708 37.0566C33.4206 37.6489 33.2926 38.7372 33.8849 39.4876L36.6018 37.3425ZM37.9819 35.9254L37.3796 34.3026C37.3568 34.3113 37.3339 34.3203 37.3114 34.3296L37.9819 35.9254ZM31.9657 37.7098L31.6751 36.0033L31.6468 36.0085L31.9657 37.7098ZM21.2196 37.6683L20.8915 39.3675L20.902 39.3696L21.2196 37.6683ZM15.1205 35.8842L14.4897 37.4959L14.4913 37.4966L15.1205 35.8842ZM12.0913 34.4736L11.129 35.9119C11.167 35.9375 11.206 35.9614 11.2458 35.9836L12.0913 34.4736ZM11.7181 34.2659L12.6789 32.8263C12.6189 32.7861 12.5566 32.7502 12.4921 32.718L11.7181 34.2659ZM11.5522 34.1417L12.776 32.9177C12.6623 32.8041 12.5333 32.7069 12.3928 32.6287L11.5522 34.1417ZM19.0099 39.4042C19.6021 38.6538 19.4739 37.5655 18.7235 36.9732C17.9732 36.3813 16.8849 36.5094 16.2927 37.2598L19.0099 39.4042ZM12.6014 43.2693L12.5466 44.9991C12.9872 45.0133 13.4166 44.8585 13.747 44.5667L12.6014 43.2693ZM2.21684 35.4692H0.486084C0.486084 35.5619 0.493512 35.6544 0.508297 35.7457L2.21684 35.4692ZM8.19145 6.08763L7.153 4.70303C6.88795 4.90182 6.68555 5.17248 6.5698 5.48287L8.19145 6.08763ZM19.8502 1.73111L21.5732 1.567C21.49 0.693141 20.7657 0.019981 19.8881 0.000769629L19.8502 1.73111ZM18.5422 6.25202C18.6329 7.20356 19.4778 7.9015 20.4293 7.81088C21.3809 7.72026 22.0788 6.87537 21.9882 5.9238L18.5422 6.25202ZM30.7468 6.03336C30.625 6.98143 31.2949 7.84871 32.243 7.97049C33.1911 8.09227 34.0583 7.42239 34.1801 6.47432L30.7468 6.03336ZM33.0443 1.73139L33.0064 0.00104651C32.1504 0.0198425 31.4368 0.661676 31.3277 1.51089L33.0443 1.73139ZM44.7031 6.08791L46.3248 5.48315C46.2089 5.17276 46.0067 4.9021 45.7416 4.70334L44.7031 6.08791ZM50.678 35.4692L52.3866 35.7457C52.4015 35.6544 52.4088 35.5619 52.4088 35.4692H50.678ZM22.9205 27.005L21.1898 26.9765V27.005H22.9205ZM40.2935 43.2693C41.423 41.9581 41.423 41.9581 41.423 41.9581C41.423 41.9578 41.423 41.9578 41.4226 41.9578C41.4223 41.9574 41.422 41.9571 41.4209 41.9564C41.4195 41.955 41.4171 41.9529 41.4136 41.9498C41.4071 41.9443 41.3967 41.9353 41.3832 41.9235C41.3562 41.9003 41.316 41.8654 41.2641 41.82C41.1599 41.7297 41.0093 41.5978 40.8245 41.4347C40.4541 41.108 39.9487 40.6569 39.406 40.1585C38.2817 39.1266 37.1241 38.004 36.6018 37.3425L33.8849 39.4876C34.6074 40.4025 35.9749 41.7075 37.0646 42.7082C37.6288 43.2264 38.1522 43.6934 38.5344 44.0305C38.7258 44.1991 38.8822 44.3358 38.9913 44.4307C39.0456 44.4785 39.0882 44.5155 39.1176 44.5408C39.1322 44.5532 39.1436 44.5633 39.1515 44.5698C39.1554 44.5733 39.1585 44.5757 39.1605 44.5778C39.1616 44.5785 39.1623 44.5792 39.163 44.5799C39.1633 44.5799 39.1633 44.5802 39.1637 44.5806H39.164C39.164 44.5806 39.164 44.5806 40.2935 43.2693ZM41.8013 32.0322C40.2097 33.0804 38.7088 33.8094 37.3796 34.3026L38.5839 37.5482C40.1588 36.9635 41.8945 36.1158 43.7052 34.9233L41.8013 32.0322ZM37.3114 34.3296C35.3501 35.1538 33.4858 35.6952 31.6751 36.0036L32.2563 39.416C34.3455 39.0601 36.4644 38.4402 38.6521 37.5212L37.3114 34.3296ZM31.6468 36.0085C27.9127 36.7087 24.4812 36.5166 21.5372 35.9669L20.902 39.3696C24.1814 39.9819 28.0522 40.2042 32.2846 39.4108L31.6468 36.0085ZM21.5477 35.969C19.3088 35.5367 17.3782 34.9074 15.7496 34.2718L14.4913 37.4966C16.2646 38.1885 18.4001 38.8867 20.8915 39.3675L21.5477 35.969ZM15.7513 34.2725C14.8444 33.9177 13.8843 33.4937 12.9368 32.9634L11.2458 35.9836C12.3734 36.6149 13.4877 37.1037 14.4897 37.4959L15.7513 34.2725ZM13.0537 33.035C12.8877 32.9239 12.7306 32.8474 12.6792 32.8218C12.6057 32.7851 12.6379 32.799 12.6789 32.8263L10.7573 35.7056C10.9228 35.816 11.0795 35.8922 11.1304 35.9174C11.2035 35.9541 11.1707 35.9399 11.129 35.9119L13.0537 33.035ZM12.4921 32.718C12.5591 32.7512 12.6303 32.7962 12.699 32.8509C12.7581 32.898 12.7998 32.9416 12.776 32.9177L10.3283 35.3653C10.4083 35.4456 10.6081 35.6461 10.9441 35.8139L12.4921 32.718ZM12.3928 32.6287C12.0501 32.4383 11.7876 32.2787 11.6155 32.17C11.5295 32.1157 11.4662 32.0741 11.427 32.0482C11.4073 32.035 11.3938 32.0257 11.3864 32.0208C11.3827 32.018 11.3805 32.0167 11.3799 32.0163C11.3796 32.016 11.3797 32.016 11.3802 32.0163C11.3805 32.0167 11.3808 32.017 11.3813 32.0173C11.3815 32.0173 11.3817 32.0173 11.382 32.0177C11.3821 32.0177 11.3823 32.018 11.3824 32.018H11.3827C11.3828 32.0184 11.3829 32.0184 10.3904 33.4362C9.39796 34.8541 9.3981 34.8544 9.3982 34.8544H9.39848C9.39865 34.8548 9.39883 34.8548 9.399 34.8548C9.39938 34.8551 9.39976 34.8554 9.40021 34.8558C9.40104 34.8565 9.40201 34.8572 9.40305 34.8579C9.40516 34.8592 9.40769 34.861 9.41063 34.8631C9.41648 34.8672 9.42396 34.8721 9.43306 34.8783C9.45127 34.8908 9.47595 34.9077 9.50689 34.9281C9.56882 34.9693 9.65595 35.0264 9.76703 35.0967C9.98905 35.2369 10.3074 35.4301 10.7115 35.6547L12.3928 32.6287ZM16.2927 37.2598C15.7644 37.9293 14.5996 39.0764 13.4762 40.1291C12.9326 40.6386 12.4263 41.1004 12.0555 41.4351C11.8703 41.6023 11.7195 41.7373 11.6153 41.83C11.5633 41.8768 11.5229 41.9124 11.4958 41.9367C11.4822 41.9484 11.472 41.9578 11.4652 41.9637C11.4619 41.9668 11.4594 41.9689 11.4578 41.9702C11.457 41.9709 11.4564 41.9713 11.4561 41.9716C11.4559 41.972 11.4558 41.972 11.4557 41.972C11.4557 41.972 11.4557 41.972 11.4557 41.972C11.4557 41.972 11.4558 41.972 12.6014 43.2693C13.747 44.5667 13.7471 44.5667 13.7471 44.5667C13.7472 44.5664 13.7473 44.5664 13.7474 44.5664C13.7476 44.566 13.7478 44.566 13.7481 44.5657C13.7487 44.5653 13.7495 44.5646 13.7505 44.5636C13.7526 44.5619 13.7556 44.5591 13.7594 44.5556C13.7672 44.5487 13.7784 44.5387 13.7931 44.5259C13.8223 44.4999 13.8649 44.4622 13.9193 44.4137C14.0281 44.3165 14.1843 44.1766 14.3753 44.0042C14.757 43.6595 15.2798 43.1828 15.8431 42.6549C16.9334 41.6331 18.2936 40.3118 19.0099 39.4042L16.2927 37.2598ZM12.6562 41.5396C8.62123 41.4116 6.5014 39.7348 5.35 38.2152C4.75264 37.4267 4.38925 36.6419 4.17685 36.0566C4.07128 35.7658 4.00502 35.5297 3.96671 35.3754C3.94758 35.2985 3.93556 35.2424 3.92915 35.2106C3.92594 35.1947 3.92415 35.185 3.92359 35.1819C3.9233 35.1805 3.92333 35.1805 3.92363 35.1822C3.92379 35.1833 3.92401 35.1846 3.92431 35.1864C3.92445 35.1871 3.92462 35.1881 3.9248 35.1891C3.92489 35.1898 3.92503 35.1909 3.92508 35.1909C3.92523 35.1919 3.92539 35.1929 2.21684 35.4692C0.508297 35.7457 0.508461 35.7468 0.508632 35.7478C0.508695 35.7482 0.508871 35.7492 0.508998 35.7499C0.509253 35.7516 0.50953 35.7534 0.509828 35.7551C0.510424 35.7586 0.511106 35.7627 0.511879 35.7672C0.513425 35.7762 0.515332 35.7869 0.517627 35.7997C0.522218 35.825 0.528369 35.8576 0.536303 35.8967C0.552162 35.9752 0.575194 36.0808 0.607203 36.2096C0.671122 36.4671 0.771437 36.8202 0.923024 37.2377C1.22497 38.0695 1.7384 39.1803 2.59096 40.3056C4.33941 42.6134 7.41188 44.8367 12.5466 44.9991L12.6562 41.5396ZM3.9476 35.4692C3.9476 29.0093 5.39818 21.8315 6.87791 16.209C7.61438 13.4106 8.35099 11.0236 8.90276 9.33831C9.17854 8.49602 9.40779 7.83006 9.56733 7.37674C9.64709 7.15011 9.70939 6.97672 9.75135 6.86111C9.77232 6.80334 9.78818 6.76 9.7986 6.73165C9.80382 6.71749 9.80767 6.70711 9.81009 6.70053C9.8113 6.69724 9.8122 6.69492 9.81269 6.69354C9.81293 6.69288 9.8131 6.69243 9.81317 6.69222C9.8132 6.69212 9.8132 6.69215 9.81324 6.69212C9.8132 6.69219 9.81314 6.69236 8.19145 6.08763C6.5698 5.48287 6.5697 5.48318 6.56956 5.4835C6.56949 5.4837 6.56935 5.48408 6.56918 5.4845C6.5689 5.48526 6.56852 5.4863 6.56807 5.48755C6.5671 5.49007 6.56582 5.49357 6.56416 5.49803C6.56087 5.50697 6.55613 5.51977 6.55003 5.53632C6.53785 5.56945 6.52016 5.6177 6.49739 5.68052C6.4518 5.80614 6.38575 5.99002 6.30216 6.22755C6.13493 6.70264 5.89744 7.39273 5.61307 8.26122C5.04462 9.99745 4.28755 12.4509 3.53039 15.328C2.02281 21.0563 0.486084 28.5693 0.486084 35.4692H3.9476ZM9.22994 7.47224C11.9973 5.39668 14.6875 4.39454 16.6716 3.91041C17.6639 3.66828 18.4768 3.55644 19.0293 3.50496C19.3053 3.47924 19.5156 3.46865 19.6497 3.46436C19.7168 3.46221 19.7647 3.46166 19.7923 3.46156C19.806 3.46149 19.8147 3.46152 19.8181 3.46156C19.8198 3.46159 19.8202 3.46159 19.8193 3.46159C19.8188 3.46156 19.818 3.46156 19.8168 3.46152C19.8163 3.46152 19.8156 3.46152 19.8148 3.46149C19.8145 3.46149 19.8138 3.46149 19.8137 3.46149C19.813 3.46145 19.8123 3.46145 19.8502 1.73111C19.8881 0.000769479 19.8875 0.000734967 19.8867 0.000734967C19.8865 0.000734967 19.8857 0.000700305 19.8852 0.000700305C19.8841 0.00066569 19.8829 0.000665596 19.8816 0.000630981C19.8791 0.000596366 19.8762 0.00052736 19.873 0.000492745C19.8665 0.000381977 19.8587 0.000278098 19.8494 0.000195022C19.8309 2.88692e-05 19.807 -6.80349e-05 19.7777 5.65796e-05C19.719 0.000305809 19.639 0.00142722 19.539 0.00464643C19.3389 0.0110502 19.0584 0.025727 18.7082 0.058369C18.0082 0.123584 17.0267 0.260695 15.8511 0.54755C13.4994 1.1214 10.3603 2.29752 7.153 4.70303L9.22994 7.47224ZM18.1273 1.89519L18.5422 6.25202L21.9882 5.9238L21.5732 1.567L18.1273 1.89519ZM34.1801 6.47432L34.761 1.95189L31.3277 1.51089L30.7468 6.03336L34.1801 6.47432ZM33.0443 1.73139C33.0823 3.46173 33.0816 3.46173 33.081 3.46176C33.0808 3.46176 33.0802 3.46176 33.0798 3.46176C33.0791 3.4618 33.0784 3.4618 33.0779 3.46183C33.0767 3.46183 33.0759 3.46187 33.0754 3.46187H33.0766C33.0799 3.46183 33.0886 3.46176 33.1024 3.46183C33.13 3.46194 33.1779 3.46249 33.245 3.46464C33.3791 3.46893 33.5893 3.47949 33.8654 3.50521C34.4179 3.55668 35.2307 3.66849 36.2231 3.91058C38.2069 4.39471 40.8972 5.39682 43.6647 7.47248L45.7416 4.70334C42.5345 2.29769 39.3952 1.12154 37.0435 0.547723C35.868 0.260868 34.8863 0.123792 34.1863 0.0586117C33.8361 0.0260042 33.5556 0.0112924 33.3555 0.00488865C33.2555 0.00170406 33.1755 0.000596585 33.1168 0.000336972C33.0876 0.000215819 33.0636 0.000312746 33.0451 0.000492745C33.0358 0.000561975 33.028 0.000665784 33.0216 0.000769629C33.0183 0.000804245 33.0154 0.00087325 33.0129 0.000907865C33.0116 0.000942481 33.0104 0.00097719 33.0094 0.00097719C33.0088 0.00097719 33.008 0.00101185 33.0078 0.00101185C33.007 0.00104647 33.0064 0.00104636 33.0443 1.73139ZM44.7031 6.08791C43.0814 6.69267 43.0814 6.69253 43.0814 6.69243V6.69253C43.0814 6.69274 43.0817 6.69319 43.0817 6.69385C43.0824 6.69523 43.0831 6.69755 43.0845 6.70084C43.0869 6.70742 43.0908 6.71784 43.0959 6.73199C43.1063 6.76031 43.1222 6.80365 43.1434 6.86145C43.1852 6.97704 43.2476 7.15042 43.3272 7.37705C43.4867 7.83033 43.7162 8.49629 43.9918 9.33855C44.5435 11.0239 45.2802 13.4108 46.0168 16.2091C47.4966 21.8316 48.9473 29.0093 48.9473 35.4692H52.4088C52.4088 28.5693 50.8719 21.0563 49.3644 15.3281C48.607 12.4511 47.85 9.99766 47.2816 8.26143C46.9971 7.39294 46.7596 6.70285 46.5924 6.22779C46.509 5.99026 46.4429 5.80639 46.3972 5.68077C46.3743 5.61794 46.3567 5.56969 46.3446 5.53656C46.3383 5.52001 46.3338 5.50724 46.3304 5.49831C46.3287 5.49385 46.3276 5.49031 46.3266 5.48779C46.3262 5.48654 46.3255 5.4855 46.3255 5.48474C46.3252 5.48436 46.3252 5.48395 46.3252 5.48377C46.3248 5.48343 46.3248 5.48315 44.7031 6.08791ZM50.678 35.4692C48.9694 35.1929 48.9698 35.1919 48.9698 35.1909C48.9698 35.1905 48.9701 35.1898 48.9701 35.1891C48.9701 35.1881 48.9705 35.1871 48.9705 35.1864C48.9708 35.1846 48.9712 35.1833 48.9712 35.1822C48.9715 35.1805 48.9715 35.1805 48.9712 35.1819C48.9708 35.185 48.9691 35.1947 48.9656 35.2106C48.9594 35.2424 48.9473 35.2985 48.9282 35.3754C48.8898 35.5297 48.8237 35.7658 48.7181 36.0566C48.5056 36.6419 48.1421 37.4267 47.5447 38.2152C46.3934 39.7348 44.2735 41.4116 40.2388 41.5396L40.3482 44.9991C45.483 44.8367 48.5554 42.6134 50.3039 40.3056C51.1564 39.1803 51.6698 38.0698 51.972 37.2377C52.1236 36.8202 52.2236 36.4671 52.2876 36.2096C52.3198 36.0808 52.3427 35.9752 52.3586 35.8967C52.3666 35.8576 52.3728 35.825 52.3773 35.7997C52.3794 35.7869 52.3815 35.7762 52.3828 35.7672C52.3839 35.7627 52.3846 35.7586 52.3849 35.7551C52.3853 35.7534 52.3856 35.7516 52.386 35.7499C52.386 35.7492 52.3863 35.7482 52.3863 35.7478C52.3863 35.7468 52.3866 35.7457 50.678 35.4692ZM18.6885 20.669C15.2229 20.669 12.726 23.6699 12.726 27.005H16.1875C16.1875 25.2784 17.4244 24.1305 18.6885 24.1305V20.669ZM12.726 27.005C12.726 30.3517 15.2747 33.3414 18.6885 33.3414V29.8798C17.4554 29.8798 16.1875 28.7205 16.1875 27.005H12.726ZM18.6885 33.3414C22.1545 33.3414 24.6513 30.3403 24.6513 27.005H21.1898C21.1898 28.7319 19.9529 29.8798 18.6885 29.8798V33.3414ZM24.6511 27.0335C24.7068 23.6487 22.1297 20.669 18.6885 20.669V24.1305C19.9771 24.1305 21.2176 25.2996 21.19 26.9765L24.6511 27.0335ZM33.8328 20.669C30.3671 20.669 27.8698 23.6697 27.8698 27.005H31.3313C31.3313 25.2786 32.5682 24.1305 33.8328 24.1305V20.669ZM27.8698 27.005C27.8698 30.352 30.4193 33.3414 33.8328 33.3414V29.8798C32.5994 29.8798 31.3313 28.7202 31.3313 27.005H27.8698ZM33.8328 33.3414C37.2986 33.3414 39.7954 30.3402 39.7954 27.005H36.3339C36.3339 28.7319 35.0969 29.8798 33.8328 29.8798V33.3414ZM39.7954 27.005C39.7954 23.6699 37.2986 20.669 33.8328 20.669V24.1305C35.0969 24.1305 36.3339 25.2784 36.3339 27.005H39.7954ZM13.4301 11.9044C18.4253 9.18012 22.4933 7.90905 26.4556 7.90707C30.4168 7.9051 34.4787 9.17157 39.4617 11.9026L41.1253 8.86716C35.8545 5.97815 31.2069 4.44321 26.4538 4.44556C21.7019 4.44791 17.0508 5.98687 11.7727 8.86539L13.4301 11.9044Z" fill="white"/>
</svg>
