<svg width="80" height="116" viewBox="0 0 80 116" fill="none" xmlns="http://www.w3.org/2000/svg">
<path d="M40.8601 74.16C21.4057 74.16 5.58013 58.3851 5.58013 38.9931C5.56508 33.0417 7.072 27.1846 9.95862 21.9749C12.8452 16.7652 17.0163 12.3748 22.0779 9.21831C22.3933 9.02031 22.7746 8.95528 23.138 9.03753C23.5015 9.11979 23.8172 9.34259 24.0159 9.65691C24.2145 9.97124 24.2797 10.3513 24.1972 10.7136C24.1147 11.0759 23.8912 11.3906 23.5759 11.5886C18.9164 14.4933 15.0766 18.5339 12.4193 23.3289C9.76194 28.124 8.37475 33.5151 8.38874 38.9931C8.38874 56.8416 22.9561 71.3604 40.8601 71.3604C58.764 71.3604 73.3314 56.8416 73.3314 38.9931C73.3389 32.6278 71.4609 26.402 67.9327 21.0965C64.4045 15.791 59.3833 11.6419 53.4988 9.16978C53.3289 9.09821 53.1748 8.99399 53.0453 8.86305C52.9158 8.73212 52.8134 8.57704 52.7441 8.40667C52.6747 8.23631 52.6397 8.05399 52.641 7.87013C52.6423 7.68627 52.6799 7.50447 52.7517 7.3351C52.8235 7.16574 52.9281 7.01213 53.0595 6.88305C53.1908 6.75396 53.3464 6.65193 53.5173 6.58278C53.6882 6.51363 53.8711 6.47871 54.0556 6.48002C54.24 6.48132 54.4224 6.51884 54.5923 6.59041C60.9858 9.27624 66.4414 13.7841 70.2747 19.5485C74.108 25.3129 76.1484 32.0773 76.14 38.9931C76.14 58.387 60.3144 74.16 40.8601 74.16Z" fill="white"/>
<path d="M30.8714 59.1162C31.5075 58.7461 32.3508 57.8672 32.2029 55.9706C32.2029 55.9706 29.2606 55.5598 27.6424 54C27.6424 54 26.6586 56.4702 27.9309 58.5056C27.9309 58.5056 24.8777 61.1793 25.9799 62.3672C26.9545 63.4182 29.0572 61.1849 29.9412 59.8619L30.0336 59.7194C29.8339 59.3364 29.3457 58.9034 28.249 58.5481C28.249 58.5407 30.1668 57.9727 30.8714 59.1162Z" fill="#C5C0B1" fill-opacity="0.9"/>
<path d="M40.967 33.7963C36.6998 35.8168 35.8519 39.2764 35.6886 40.338C33.375 42.6669 33.2452 46.2349 33.5569 48.8516C33.5558 48.869 33.5558 48.8865 33.5569 48.9039C33.606 49.1944 33.6837 49.4793 33.7888 49.7543C33.6274 50.5954 33.6942 51.8439 33.8148 52.956C33.7925 53.8756 33.8148 54.7017 33.8686 55.44C29.9149 55.1634 26.7961 53.7878 25.631 50.8926C21.8702 41.5473 25.7107 1.09124e-06 41.8891 1.09124e-06C53.5071 -0.00560608 46.084 21.5988 40.967 33.7963Z" fill="white"/>
<path d="M62.46 41.1805C62.46 43.7533 60.3612 46.4052 57.2061 48.6895C56.7391 49.0294 56.2466 49.3584 55.7372 49.68C56.104 47.0815 55.5334 44.2403 55.1514 42.7518C55.1215 42.6353 55.0657 42.5286 54.9886 42.4411C54.9116 42.3536 54.8159 42.288 54.7099 42.2501C54.8487 41.8679 54.966 41.477 55.0614 41.0795C55.0746 41.0255 55.082 40.9699 55.0834 40.9141C55.1344 38.9918 54.8627 37.6062 54.54 36.6873C55.069 36.8016 55.6144 36.7922 56.1397 36.6597C56.1679 36.6516 56.1957 36.6418 56.2229 36.6303C56.5688 36.5288 56.8981 36.3701 57.1993 36.1599C57.2204 36.1465 57.2408 36.1317 57.2604 36.1158C57.3029 36.0864 57.3436 36.0533 57.3861 36.0184L57.4082 36C59.7329 36.2536 61.5634 37.3728 62.2834 39.9162C62.3998 40.3259 62.4593 40.752 62.46 41.1805Z" fill="white"/>
<path d="M58.1386 32.9551C58.1386 33.0079 58.1386 33.0606 58.1386 33.1115C58.1405 33.1473 58.1405 33.1831 58.1386 33.2189C58.1386 33.2453 58.1386 33.2736 58.1291 33.2999C58.1196 33.3263 58.1139 33.4017 58.1025 33.4507C58.0911 33.4997 58.0854 33.5279 58.0759 33.5656C58.0664 33.6033 58.0493 33.6655 58.0322 33.7163C58.0024 33.8088 57.9669 33.8995 57.9259 33.9877C57.9252 33.9933 57.9252 33.999 57.9259 34.0046C57.9069 34.0442 57.886 34.0838 57.8651 34.1214C57.8602 34.1331 57.8545 34.1444 57.848 34.1554C57.8123 34.2203 57.773 34.2832 57.7302 34.3438L57.7018 34.3852C57.6467 34.4644 57.5859 34.5416 57.5232 34.6151C57.5192 34.6172 57.5159 34.6205 57.5137 34.6245L57.4074 34.7376L57.2972 34.845L57.1928 34.9354L57.1719 34.9524C57.1339 34.9844 57.0959 35.0146 57.056 35.0428C57.0161 35.0711 56.9762 35.1012 56.9363 35.1276L56.8965 35.154C56.5951 35.347 56.2631 35.4884 55.9145 35.5723H55.9335C55.2074 35.7302 54.4501 35.6645 53.7626 35.3839L53.7322 35.3707L53.7038 35.3575C53.3999 35.2166 53.1225 35.0255 52.8833 34.7922C52.8704 34.9163 52.8449 35.0387 52.8073 35.1577C52.8073 35.1577 54.2906 36.6293 54.1729 40.6426C54.152 40.7237 53.4872 43.2956 52.2052 44.1246C52.9604 43.769 53.6586 43.3049 54.2773 42.7473C54.8357 44.7445 56.1443 50.6157 53.0428 53.2347C52.5987 52.9031 52.0749 52.6927 51.5234 52.6243C52.1391 53.0167 52.6678 53.5296 53.077 54.1316C53.2669 54.9211 53.3562 56.0723 52.2774 56.1571C50.6231 56.2871 50.4921 53.7812 51.058 52.873C51.058 52.873 48.3573 49.244 51.8406 41.9013L51.2214 41.0101C50.7808 40.3292 50.4279 39.5961 50.1711 38.8282C50.1198 38.6605 50.0742 38.4909 50.0381 38.3213C50.0381 38.2874 50.0229 38.2535 50.0172 38.2177C50.0001 38.1329 49.9869 38.0462 49.9755 37.9595C49.9641 37.8729 49.9565 37.7994 49.9508 37.7203C49.9498 37.7134 49.9498 37.7064 49.9508 37.6995C49.9316 37.4232 49.9501 37.1456 50.0058 36.8742C50.0307 36.7562 50.065 36.6402 50.1084 36.5276C50.1084 36.5276 41.1362 39.4914 40.3954 40.9592C40.3954 40.9592 39.3508 48.0023 37.4344 50.5516C37.4344 50.5516 42.0079 58.8025 40.0934 60.5756C40.0934 60.5756 38.8437 59.6674 37.0147 60.3306C37.0147 60.3306 39.7117 60.1931 39.989 61.8022C39.7991 63.3453 39.2122 65.759 37.5674 65.5009C35.1724 65.1108 37.349 60.9637 37.349 60.9637C37.349 60.9637 34.0955 60.2722 34.8951 50.6383L34.8837 50.5969C35.2593 50.8903 35.6991 51.0922 36.1676 51.1866L36.2132 51.2149L36.16 51.1753C35.539 50.7216 35.0533 50.1096 34.7545 49.4042C34.6333 49.1275 34.5472 48.837 34.4981 48.5393C34.2208 46.2387 34.2512 42.5871 36.6481 40.4033C36.6481 40.4033 36.9976 35.1276 43.9642 33.3188C45.196 32.9871 46.4521 32.7514 47.721 32.6141C47.9147 32.5952 48.1047 32.5802 48.2908 32.5689C48.5643 32.5519 48.8264 32.5444 49.0733 32.5444C49.472 32.5423 49.8705 32.5662 50.266 32.616C50.4813 32.6449 50.6826 32.6806 50.87 32.7234C51.2999 32.8144 51.7102 32.9802 52.0818 33.2133C52.0719 33.1288 52.0668 33.0439 52.0666 32.9589C52.0666 31.4515 53.4322 30.24 55.1168 30.24C56.8015 30.24 58.1386 31.4534 58.1386 32.9551Z" fill="#C5C0B1" fill-opacity="0.9"/>
<path d="M49.5086 52.9436L49.5657 53.1586C49.5086 53.2328 49.4567 53.3032 49.4082 53.3698C49.2068 53.634 49.0288 53.9188 48.8769 54.2203C46.0851 59.9648 47.4265 64.0138 47.4473 66.2267C47.4576 67.3132 46.3153 67.1115 46.4192 66.1506C46.6546 63.9662 47.1115 54.4544 44.2194 55.0652C43.905 55.1209 43.6095 55.2665 43.3626 55.4876C42.2272 56.458 42.2809 58.8764 42.2982 59.4053C42.3449 60.8001 42.6911 61.9398 42.2688 62.3318C42.1939 62.389 42.1039 62.4174 42.0128 62.4126C41.9218 62.4078 41.8347 62.37 41.7651 62.3051C41.5211 62.0045 41.7253 61.3538 41.7651 61.1787C41.8617 60.6211 41.9196 60.0563 41.9382 59.4891C41.9642 57.7861 41.5142 57.2058 41.0728 56.7472C40.8998 56.0984 40.6817 55.3829 40.4013 54.5952C39.8977 53.2087 39.3299 51.8516 38.7 50.529C40.2386 47.8176 41.1005 42.1435 41.2511 41.0742C41.8153 40.334 45.2648 38.7243 48.6017 37.4399C48.6017 37.4723 48.6017 37.5027 48.6017 37.5332C48.6001 37.5585 48.6001 37.5839 48.6017 37.6093C48.6017 37.6968 48.6155 37.7824 48.6259 37.8643C48.6363 37.9461 48.6519 38.0659 48.6692 38.163C48.6692 38.2106 48.6848 38.2543 48.6934 38.2886C48.728 38.4788 48.7713 38.6691 48.8284 38.8594L48.8492 38.9241C49.1939 39.9553 49.6544 40.9352 50.22 41.841C47.783 47.8062 48.8699 51.4423 49.4601 52.7457C49.4757 52.8218 49.4913 52.8846 49.5086 52.9436Z" fill="white"/>
<g filter="url(#filter0_di_596_2)">
<path d="M57.6097 94.0913C57.573 93.8303 57.5271 93.2937 57.9161 93.3083C58.3051 93.3229 58.5638 93.9562 58.3142 94.7301C58.0647 95.504 58.5949 95.911 58.4977 94.6261C58.4005 93.3412 59.4151 93.3083 59.4151 93.3083C61.0498 93.2864 63.1727 93.0437 63.18 91.9358C63.191 90.2347 59.9655 89.4225 57.4189 88.6085C54.8722 87.7945 48.9625 86.8965 48.7827 90.1088C48.6891 91.7843 51.0798 92.5655 53.3916 92.9305C52.6577 94.8177 50.6395 100.583 53.1769 102.071C53.1769 102.071 53.8631 102.527 53.5824 103.569C53.3017 104.612 54.153 104.577 53.8925 103.569C53.7402 102.984 53.8246 102.425 54.2723 102.401H54.3805H54.4007C54.9511 102.487 54.5401 103.883 54.3658 104.725C54.2613 105.236 55.0906 105.336 54.942 104.513C54.8245 103.874 54.6888 102.52 55.4722 102.065C55.5541 102.023 55.6236 101.96 55.674 101.883C57.4225 100.18 57.0042 94.7155 56.8538 93.228L57.3455 93.239C57.4075 93.3229 57.4459 93.4217 57.4569 93.5253C57.4678 93.6289 57.4509 93.7335 57.4079 93.8285C57.184 94.4545 57.6482 94.3505 57.6097 94.0913Z" fill="#F5F5F5"/>
</g>
<g filter="url(#filter1_di_596_2)">
<path d="M8.30132 100.838C8.30132 100.838 13.807 90 9.52056 90C5.23414 90 4.21556 100.727 5.21311 103.133C5.58003 104.024 6.6846 104.358 8.02232 104.318C8.04525 104.438 8.69882 104.251 9.16893 104.682C9.29697 104.8 9.42883 104.98 9.42119 105.421C9.41159 105.581 9.39051 105.741 9.35812 105.898C9.34972 105.921 9.34691 105.946 9.34989 105.971C9.35287 105.996 9.36157 106.02 9.37532 106.04C9.39638 106.055 9.42138 106.062 9.44698 106.062C9.47258 106.062 9.49758 106.055 9.51864 106.04C9.63904 105.941 9.50336 105.71 9.48998 105.358C9.48998 105.222 9.50718 104.607 9.83014 104.363C9.90018 104.307 9.98384 104.271 10.0728 104.256C10.8927 104.101 10.8239 106.785 10.7895 107.05C10.7551 107.314 10.9634 107.341 11.0016 107.181C11.0456 106.994 10.369 105.532 11.3953 104.042C11.5676 103.763 11.7958 103.521 12.066 103.331C12.5356 103.126 12.9875 102.884 13.4171 102.607C14.4816 101.907 15.137 101.08 14.8867 100.302C14.0592 97.7013 8.30132 100.838 8.30132 100.838Z" fill="#F5F5F5"/>
</g>
<g filter="url(#filter2_di_596_2)">
<path d="M13.0573 95.6044L13.5119 95.3565C16.135 93.8873 17.8545 88.5762 18.4079 86.6406C18.4719 86.4192 18.4542 86.1816 18.3581 85.9727C18.2621 85.7639 18.0944 85.5983 17.8868 85.5074C15.2313 84.3688 9.16207 85.0153 9.18003 87.3623C9.20519 88.6478 9.86996 89.1676 10.8096 89.2649C10.8096 89.2649 12.247 89.3824 11.8481 91.7405C11.7709 92.2088 11.9595 92.352 11.9541 91.7056C11.9541 91.0059 12.2057 89.5018 12.6135 89.5018C12.8489 89.5018 12.7501 89.7571 12.7501 89.9921C12.7501 90.1097 12.7034 90.2254 12.7213 90.2786C12.7272 90.2909 12.736 90.3014 12.7471 90.3091C12.7581 90.3169 12.7709 90.3215 12.7842 90.3227C12.8001 90.3236 12.8158 90.3196 12.8293 90.311C12.8428 90.3025 12.8534 90.2899 12.8597 90.275C12.8597 90.275 12.8597 90.2658 12.8597 90.2603C12.8144 90.0082 12.838 89.7483 12.9279 89.5091C13.1184 89.0041 14.2862 88.5193 14.2862 88.5193C14.96 88.2475 15.5924 87.9445 16.1009 87.6837L15.6481 87.9334C13.0232 89.4026 11.3037 94.7119 10.7503 96.6494C10.6869 96.8709 10.705 97.1086 10.8014 97.3174C10.8977 97.5262 11.0656 97.6916 11.2732 97.7825C12.1082 98.1025 12.9889 98.2805 13.8802 98.3096L13.9233 98.3188C14.8217 98.4712 16.0793 98.2398 16.5591 98.8697C17.0388 99.4996 16.1638 101.31 16.595 101.503C17.0262 101.696 16.7747 100.181 16.8968 99.1323C17.019 98.0837 17.5041 98.1571 17.691 98.4767C17.8545 98.7522 17.8293 99.4206 17.8491 99.8155C17.8688 100.21 17.9299 100.366 17.9767 99.7935C18.0611 98.192 18.742 97.5474 19.008 97.3546C19.6098 96.9873 19.9836 96.5043 19.98 95.9203C19.9135 92.5081 15.2978 94.4548 13.0573 95.6044Z" fill="#F5F5F5"/>
</g>
<g filter="url(#filter3_di_596_2)">
<path d="M29.9306 86.0838C26.6494 84.2207 23.9872 91.3081 23.5139 92.6675C23.9346 91.4149 24.0272 90.0747 23.7828 88.7758C23.2791 84.5249 20.6057 84.9736 20.6057 84.9736C18.025 84.9451 19.5927 93.1694 21.6603 95.2397C21.6319 95.3062 17.7807 101.645 21.4709 101.759H21.4918C22.412 101.797 22.2813 102.205 22.2586 102.344C22.2359 102.483 22.3381 102.454 22.3381 102.371C22.3381 102.287 22.2415 101.772 22.5274 101.711C22.8134 101.65 22.7603 102.194 22.696 102.643C22.6316 103.091 22.8588 103.023 22.8361 102.694C22.8126 102.103 22.9431 101.517 23.2147 100.992C23.2175 100.987 23.2206 100.982 23.2242 100.977C23.2273 100.969 23.2311 100.96 23.2356 100.953C23.2925 100.842 23.3376 100.726 23.37 100.607C23.4054 100.473 23.4338 100.338 23.4552 100.202C23.7638 98.3746 23.245 95.4887 23.245 95.4887C23.7945 95.2817 24.3217 95.0193 24.8184 94.7055L24.8696 94.675C25.0835 94.5515 25.8825 94.1408 25.8447 94.6294C25.8125 95.0363 25.9621 95.2739 26.0056 94.523C26.0378 93.9336 26.8709 93.2036 26.8709 93.2036C29.7053 90.7948 32.1212 87.3272 29.9306 86.0838Z" fill="#F5F5F5"/>
</g>
<g filter="url(#filter4_di_596_2)">
<path d="M49.7411 93.0065C47.9367 91.8947 45.8193 95.8084 47.4016 98.6406C47.4016 98.6406 46.7775 97.7738 45.3073 98.2825C45.3073 98.2825 46.8895 91.8759 43.8851 92.1698C40.9908 92.4544 40.1411 101.825 45.3998 102.664C45.7528 102.725 46.109 102.763 46.4664 102.778C47.7873 102.856 47.3553 104.235 47.3109 104.454C47.2558 104.748 47.19 105.207 47.4887 105.106C47.8442 104.979 47.3002 103.095 47.7127 102.937C47.99 102.831 48.2353 103.144 48.1002 103.738C47.9651 104.331 48.4007 104.184 48.3011 103.662C48.1233 102.771 48.7296 102.064 48.9571 101.833C51.7642 99.6034 51.174 93.8921 49.7411 93.0065Z" fill="#F5F5F5"/>
</g>
<g filter="url(#filter5_di_596_2)">
<path d="M62.2415 93.6119C59.0967 93.3103 55.693 98.768 58.4108 103.47C58.6479 103.887 58.9368 104.262 59.2682 104.583L59.3454 104.655C59.7484 105.048 60.018 105.591 60.1067 106.189C60.237 107.219 59.7638 107.436 59.9352 107.81C60.1067 108.185 60.4942 107.982 60.3348 107.404C60.1753 106.826 60.237 105.629 60.6108 105.659C60.9846 105.689 61.2401 105.98 61.1132 106.471C60.9589 107.073 61.3722 107.098 61.3893 106.771C61.403 106.479 60.8749 105.73 61.9672 105.539C62.046 105.539 62.1232 105.521 62.2004 105.509H62.2141C62.2423 105.507 62.2704 105.502 62.2981 105.495C64.3558 105.121 65.9813 103.157 64.9679 102.435C63.3149 101.264 60.4119 102.5 60.3502 102.528C60.3931 102.498 61.5505 101.749 60.7086 100.42C61.686 100.709 62.6918 100.85 63.7007 100.84C63.7007 100.84 64.2152 100.83 64.1037 101.329C63.9922 101.828 64.0025 101.966 64.1877 101.899C64.3729 101.832 63.97 101.081 64.3009 100.99C64.6318 100.899 64.3523 101.542 64.4895 101.513C64.7227 101.463 64.2632 100.87 64.8067 100.643L64.865 100.621C64.9107 100.61 64.9546 100.591 64.9954 100.564C65.2112 100.479 65.4065 100.336 65.5653 100.148C65.7241 99.9594 65.842 99.7305 65.9093 99.4797C66.4975 97.1117 65.3829 93.9116 62.2415 93.6119ZM61.3619 97.9339C62.4199 97.51 62.4319 96.2698 62.3718 95.6763C62.5126 96.5605 62.9104 97.3635 63.5001 97.9536C62.7114 97.5554 61.7151 97.8196 61.3619 97.9339Z" fill="#F5F5F5"/>
</g>
<g filter="url(#filter6_di_596_2)">
<path d="M41.4347 80.6496C35.3963 80.2913 39.9796 90.1446 40.0242 90.2384C39.9963 90.2234 38.3346 89.3549 37.4953 90.9493C37.4953 90.9493 38.022 89.2461 37.6349 87.5523C37.6349 87.5523 37.1902 82.5759 33.6769 83.6751C31.4681 84.3654 31.9668 88.4996 33.863 91.4989C33.9263 91.6002 33.9914 91.6996 34.0491 91.7971L34.1012 91.874C34.4008 92.3223 34.8251 92.7013 34.451 94.2769C33.9858 96.2445 35.039 95.9801 34.9404 95.166C34.8195 94.1587 34.5906 93.0333 35.0688 93.0408C35.6067 93.5992 36.2485 94.0454 36.9576 94.3538C36.9576 94.3538 34.3003 99.2307 37.0692 100.628C37.3522 100.767 37.5799 100.999 37.7151 101.286C37.8503 101.572 37.885 101.897 37.8135 102.206C37.7447 102.605 37.6907 103.187 37.6907 103.237C37.6907 103.483 37.7987 103.68 37.9326 103.68C38.0071 103.68 38.0722 103.62 38.1187 103.522C38.1564 103.432 38.1753 103.335 38.1745 103.237C38.1755 103.222 38.1755 103.207 38.1745 103.192C38.1745 103.155 38.1746 103.115 38.1597 103.074C38.0852 102.577 37.8787 101.825 38.1894 101.532C38.6639 101.084 39.1608 101.369 38.958 101.877C38.7551 102.386 39.4232 102.551 39.291 101.96C39.1589 101.369 39.278 101.022 39.6632 100.658C41.3659 99.4915 40.4764 95.4061 39.9982 94.23C44.1609 91.8947 46.833 80.9684 41.4347 80.6496Z" fill="#F5F5F5"/>
</g>
<g filter="url(#filter7_di_596_2)">
<path d="M75.096 97.1213C73.9943 94.8233 69.4192 94.5037 69.4192 94.5037C70.0152 94.2116 70.7142 93.2325 70.7408 92.9735C70.826 93.8185 71.289 94.8104 72.3623 94.7204C73.5225 94.6231 73.9872 93.2252 73.9872 93.2252C73.9872 93.2252 75.229 89.2004 71.3475 89.2812C67.466 89.3621 63.2758 94.4247 68.5215 98.0214C69.7332 98.8536 72.0128 99.2191 72.0128 99.2191C70.1181 99.1695 70.2867 100.457 70.2955 100.518C70.2742 100.446 69.6267 98.3135 67.9521 98.5615C66.3962 98.7985 65.8711 102.511 69.1176 102.932C69.1931 102.941 69.2657 102.967 69.3304 103.009C69.395 103.05 69.4501 103.106 69.4919 103.171C69.5336 103.237 69.561 103.312 69.572 103.39C69.5831 103.467 69.5775 103.547 69.5558 103.622C69.4777 103.861 69.5096 104.071 69.6391 104.052C69.8343 104.025 69.7349 103.604 69.7349 103.604C69.6303 103.143 69.7775 102.952 70.0596 102.989C70.3416 103.025 70.4144 103.38 70.2512 103.87C70.0152 104.554 70.8135 104.614 70.5616 103.826C70.5039 103.687 70.4912 103.533 70.5254 103.386C70.5596 103.239 70.6389 103.107 70.7514 103.011C70.8701 102.913 71.0115 102.85 71.1612 102.827C74.7589 102.142 76.1019 99.2301 75.096 97.1213Z" fill="#F5F5F5"/>
</g>
<defs>
<filter id="filter0_di_596_2" x="44.78" y="87.8401" width="22.4" height="25.28" filterUnits="userSpaceOnUse" color-interpolation-filters="sRGB">
<feFlood flood-opacity="0" result="BackgroundImageFix"/>
<feColorMatrix in="SourceAlpha" type="matrix" values="0 0 0 0 0 0 0 0 0 0 0 0 0 0 0 0 0 0 127 0" result="hardAlpha"/>
<feOffset dy="4"/>
<feGaussianBlur stdDeviation="2"/>
<feComposite in2="hardAlpha" operator="out"/>
<feColorMatrix type="matrix" values="0 0 0 0 0 0 0 0 0 0 0 0 0 0 0 0 0 0 0.25 0"/>
<feBlend mode="normal" in2="BackgroundImageFix" result="effect1_dropShadow_596_2"/>
<feBlend mode="normal" in="SourceGraphic" in2="effect1_dropShadow_596_2" result="shape"/>
<feColorMatrix in="SourceAlpha" type="matrix" values="0 0 0 0 0 0 0 0 0 0 0 0 0 0 0 0 0 0 127 0" result="hardAlpha"/>
<feOffset dy="4"/>
<feGaussianBlur stdDeviation="2"/>
<feComposite in2="hardAlpha" operator="arithmetic" k2="-1" k3="1"/>
<feColorMatrix type="matrix" values="0 0 0 0 0 0 0 0 0 0 0 0 0 0 0 0 0 0 0.25 0"/>
<feBlend mode="normal" in2="shape" result="effect2_innerShadow_596_2"/>
</filter>
<filter id="filter1_di_596_2" x="0.859985" y="90" width="18.08" height="25.28" filterUnits="userSpaceOnUse" color-interpolation-filters="sRGB">
<feFlood flood-opacity="0" result="BackgroundImageFix"/>
<feColorMatrix in="SourceAlpha" type="matrix" values="0 0 0 0 0 0 0 0 0 0 0 0 0 0 0 0 0 0 127 0" result="hardAlpha"/>
<feOffset dy="4"/>
<feGaussianBlur stdDeviation="2"/>
<feComposite in2="hardAlpha" operator="out"/>
<feColorMatrix type="matrix" values="0 0 0 0 0 0 0 0 0 0 0 0 0 0 0 0 0 0 0.25 0"/>
<feBlend mode="normal" in2="BackgroundImageFix" result="effect1_dropShadow_596_2"/>
<feBlend mode="normal" in="SourceGraphic" in2="effect1_dropShadow_596_2" result="shape"/>
<feColorMatrix in="SourceAlpha" type="matrix" values="0 0 0 0 0 0 0 0 0 0 0 0 0 0 0 0 0 0 127 0" result="hardAlpha"/>
<feOffset dy="4"/>
<feGaussianBlur stdDeviation="2"/>
<feComposite in2="hardAlpha" operator="arithmetic" k2="-1" k3="1"/>
<feColorMatrix type="matrix" values="0 0 0 0 0 0 0 0 0 0 0 0 0 0 0 0 0 0 0.25 0"/>
<feBlend mode="normal" in2="shape" result="effect2_innerShadow_596_2"/>
</filter>
<filter id="filter2_di_596_2" x="5.17999" y="84.96" width="18.8" height="24.5601" filterUnits="userSpaceOnUse" color-interpolation-filters="sRGB">
<feFlood flood-opacity="0" result="BackgroundImageFix"/>
<feColorMatrix in="SourceAlpha" type="matrix" values="0 0 0 0 0 0 0 0 0 0 0 0 0 0 0 0 0 0 127 0" result="hardAlpha"/>
<feOffset dy="4"/>
<feGaussianBlur stdDeviation="2"/>
<feComposite in2="hardAlpha" operator="out"/>
<feColorMatrix type="matrix" values="0 0 0 0 0 0 0 0 0 0 0 0 0 0 0 0 0 0 0.25 0"/>
<feBlend mode="normal" in2="BackgroundImageFix" result="effect1_dropShadow_596_2"/>
<feBlend mode="normal" in="SourceGraphic" in2="effect1_dropShadow_596_2" result="shape"/>
<feColorMatrix in="SourceAlpha" type="matrix" values="0 0 0 0 0 0 0 0 0 0 0 0 0 0 0 0 0 0 127 0" result="hardAlpha"/>
<feOffset dy="4"/>
<feGaussianBlur stdDeviation="2"/>
<feComposite in2="hardAlpha" operator="arithmetic" k2="-1" k3="1"/>
<feColorMatrix type="matrix" values="0 0 0 0 0 0 0 0 0 0 0 0 0 0 0 0 0 0 0.25 0"/>
<feBlend mode="normal" in2="shape" result="effect2_innerShadow_596_2"/>
</filter>
<filter id="filter3_di_596_2" x="15.26" y="84.96" width="19.52" height="26" filterUnits="userSpaceOnUse" color-interpolation-filters="sRGB">
<feFlood flood-opacity="0" result="BackgroundImageFix"/>
<feColorMatrix in="SourceAlpha" type="matrix" values="0 0 0 0 0 0 0 0 0 0 0 0 0 0 0 0 0 0 127 0" result="hardAlpha"/>
<feOffset dy="4"/>
<feGaussianBlur stdDeviation="2"/>
<feComposite in2="hardAlpha" operator="out"/>
<feColorMatrix type="matrix" values="0 0 0 0 0 0 0 0 0 0 0 0 0 0 0 0 0 0 0.25 0"/>
<feBlend mode="normal" in2="BackgroundImageFix" result="effect1_dropShadow_596_2"/>
<feBlend mode="normal" in="SourceGraphic" in2="effect1_dropShadow_596_2" result="shape"/>
<feColorMatrix in="SourceAlpha" type="matrix" values="0 0 0 0 0 0 0 0 0 0 0 0 0 0 0 0 0 0 127 0" result="hardAlpha"/>
<feOffset dy="4"/>
<feGaussianBlur stdDeviation="2"/>
<feComposite in2="hardAlpha" operator="arithmetic" k2="-1" k3="1"/>
<feColorMatrix type="matrix" values="0 0 0 0 0 0 0 0 0 0 0 0 0 0 0 0 0 0 0.25 0"/>
<feBlend mode="normal" in2="shape" result="effect2_innerShadow_596_2"/>
</filter>
<filter id="filter4_di_596_2" x="37.58" y="92.16" width="17.36" height="20.96" filterUnits="userSpaceOnUse" color-interpolation-filters="sRGB">
<feFlood flood-opacity="0" result="BackgroundImageFix"/>
<feColorMatrix in="SourceAlpha" type="matrix" values="0 0 0 0 0 0 0 0 0 0 0 0 0 0 0 0 0 0 127 0" result="hardAlpha"/>
<feOffset dy="4"/>
<feGaussianBlur stdDeviation="2"/>
<feComposite in2="hardAlpha" operator="out"/>
<feColorMatrix type="matrix" values="0 0 0 0 0 0 0 0 0 0 0 0 0 0 0 0 0 0 0.25 0"/>
<feBlend mode="normal" in2="BackgroundImageFix" result="effect1_dropShadow_596_2"/>
<feBlend mode="normal" in="SourceGraphic" in2="effect1_dropShadow_596_2" result="shape"/>
<feColorMatrix in="SourceAlpha" type="matrix" values="0 0 0 0 0 0 0 0 0 0 0 0 0 0 0 0 0 0 127 0" result="hardAlpha"/>
<feOffset dy="4"/>
<feGaussianBlur stdDeviation="2"/>
<feComposite in2="hardAlpha" operator="arithmetic" k2="-1" k3="1"/>
<feColorMatrix type="matrix" values="0 0 0 0 0 0 0 0 0 0 0 0 0 0 0 0 0 0 0.25 0"/>
<feBlend mode="normal" in2="shape" result="effect2_innerShadow_596_2"/>
</filter>
<filter id="filter5_di_596_2" x="53.42" y="93.6" width="16.64" height="22.4" filterUnits="userSpaceOnUse" color-interpolation-filters="sRGB">
<feFlood flood-opacity="0" result="BackgroundImageFix"/>
<feColorMatrix in="SourceAlpha" type="matrix" values="0 0 0 0 0 0 0 0 0 0 0 0 0 0 0 0 0 0 127 0" result="hardAlpha"/>
<feOffset dy="4"/>
<feGaussianBlur stdDeviation="2"/>
<feComposite in2="hardAlpha" operator="out"/>
<feColorMatrix type="matrix" values="0 0 0 0 0 0 0 0 0 0 0 0 0 0 0 0 0 0 0.25 0"/>
<feBlend mode="normal" in2="BackgroundImageFix" result="effect1_dropShadow_596_2"/>
<feBlend mode="normal" in="SourceGraphic" in2="effect1_dropShadow_596_2" result="shape"/>
<feColorMatrix in="SourceAlpha" type="matrix" values="0 0 0 0 0 0 0 0 0 0 0 0 0 0 0 0 0 0 127 0" result="hardAlpha"/>
<feOffset dy="4"/>
<feGaussianBlur stdDeviation="2"/>
<feComposite in2="hardAlpha" operator="arithmetic" k2="-1" k3="1"/>
<feColorMatrix type="matrix" values="0 0 0 0 0 0 0 0 0 0 0 0 0 0 0 0 0 0 0.25 0"/>
<feBlend mode="normal" in2="shape" result="effect2_innerShadow_596_2"/>
</filter>
<filter id="filter6_di_596_2" x="28.22" y="80.64" width="20.24" height="31.04" filterUnits="userSpaceOnUse" color-interpolation-filters="sRGB">
<feFlood flood-opacity="0" result="BackgroundImageFix"/>
<feColorMatrix in="SourceAlpha" type="matrix" values="0 0 0 0 0 0 0 0 0 0 0 0 0 0 0 0 0 0 127 0" result="hardAlpha"/>
<feOffset dy="4"/>
<feGaussianBlur stdDeviation="2"/>
<feComposite in2="hardAlpha" operator="out"/>
<feColorMatrix type="matrix" values="0 0 0 0 0 0 0 0 0 0 0 0 0 0 0 0 0 0 0.25 0"/>
<feBlend mode="normal" in2="BackgroundImageFix" result="effect1_dropShadow_596_2"/>
<feBlend mode="normal" in="SourceGraphic" in2="effect1_dropShadow_596_2" result="shape"/>
<feColorMatrix in="SourceAlpha" type="matrix" values="0 0 0 0 0 0 0 0 0 0 0 0 0 0 0 0 0 0 127 0" result="hardAlpha"/>
<feOffset dy="4"/>
<feGaussianBlur stdDeviation="2"/>
<feComposite in2="hardAlpha" operator="arithmetic" k2="-1" k3="1"/>
<feColorMatrix type="matrix" values="0 0 0 0 0 0 0 0 0 0 0 0 0 0 0 0 0 0 0.25 0"/>
<feBlend mode="normal" in2="shape" result="effect2_innerShadow_596_2"/>
</filter>
<filter id="filter7_di_596_2" x="62.06" y="89.28" width="17.36" height="23.12" filterUnits="userSpaceOnUse" color-interpolation-filters="sRGB">
<feFlood flood-opacity="0" result="BackgroundImageFix"/>
<feColorMatrix in="SourceAlpha" type="matrix" values="0 0 0 0 0 0 0 0 0 0 0 0 0 0 0 0 0 0 127 0" result="hardAlpha"/>
<feOffset dy="4"/>
<feGaussianBlur stdDeviation="2"/>
<feComposite in2="hardAlpha" operator="out"/>
<feColorMatrix type="matrix" values="0 0 0 0 0 0 0 0 0 0 0 0 0 0 0 0 0 0 0.25 0"/>
<feBlend mode="normal" in2="BackgroundImageFix" result="effect1_dropShadow_596_2"/>
<feBlend mode="normal" in="SourceGraphic" in2="effect1_dropShadow_596_2" result="shape"/>
<feColorMatrix in="SourceAlpha" type="matrix" values="0 0 0 0 0 0 0 0 0 0 0 0 0 0 0 0 0 0 127 0" result="hardAlpha"/>
<feOffset dy="4"/>
<feGaussianBlur stdDeviation="2"/>
<feComposite in2="hardAlpha" operator="arithmetic" k2="-1" k3="1"/>
<feColorMatrix type="matrix" values="0 0 0 0 0 0 0 0 0 0 0 0 0 0 0 0 0 0 0.25 0"/>
<feBlend mode="normal" in2="shape" result="effect2_innerShadow_596_2"/>
</filter>
</defs>
</svg>
