<svg width="80" height="73" viewBox="0 0 80 73" fill="none" xmlns="http://www.w3.org/2000/svg">
<path d="M36.2545 40.5132C25.6267 40.5132 16.9812 31.8955 16.9812 21.3017C16.973 18.0505 17.7962 14.8508 19.3732 12.0047C20.9501 9.1587 23.2288 6.76025 25.9939 5.03585C26.1662 4.92769 26.3745 4.89216 26.5731 4.9371C26.7716 4.98203 26.9441 5.10375 27.0526 5.27546C27.1611 5.44718 27.1968 5.65483 27.1517 5.85274C27.1066 6.05064 26.9845 6.2226 26.8122 6.33076C24.2668 7.91754 22.1691 10.1249 20.7174 12.7444C19.2657 15.364 18.5079 18.3091 18.5156 21.3017C18.5156 31.0523 26.4737 38.9838 36.2545 38.9838C46.0354 38.9838 53.9935 31.0523 53.9935 21.3017C53.9976 17.8244 52.9716 14.4232 51.0442 11.5249C49.1168 8.62647 46.3737 6.35988 43.159 5.00934C43.0662 4.97025 42.982 4.91331 42.9113 4.84178C42.8405 4.77025 42.7846 4.68553 42.7467 4.59246C42.7088 4.49939 42.6897 4.39979 42.6904 4.29935C42.6911 4.19891 42.7117 4.09959 42.7509 4.00707C42.7901 3.91454 42.8473 3.83063 42.919 3.76011C42.9908 3.68959 43.0758 3.63385 43.1691 3.59608C43.2625 3.5583 43.3624 3.53922 43.4632 3.53994C43.564 3.54065 43.6636 3.56114 43.7564 3.60024C47.2492 5.0675 50.2295 7.53012 52.3236 10.6792C54.4178 13.8283 55.5324 17.5236 55.5278 21.3017C55.5278 31.8965 46.8824 40.5132 36.2545 40.5132Z" fill="white"/>
<path d="M30.7976 32.295C31.1452 32.0928 31.6058 31.6126 31.525 30.5765C31.525 30.5765 29.9177 30.3521 29.0337 29.5C29.0337 29.5 28.4962 30.8495 29.1913 31.9614C29.1913 31.9614 27.5233 33.422 28.1254 34.071C28.6578 34.6451 29.8065 33.4251 30.2894 32.7023L30.34 32.6245C30.2308 32.4152 29.9641 32.1787 29.365 31.9846C29.365 31.9806 30.4127 31.6703 30.7976 32.295Z" fill="#CAC6B9"/>
<path d="M36.3129 18.4628C33.9817 19.5666 33.5185 21.4565 33.4293 22.0365C32.1654 23.3087 32.0945 25.2579 32.2647 26.6874C32.2642 26.697 32.2642 26.7065 32.2647 26.716C32.2916 26.8747 32.334 27.0304 32.3914 27.1806C32.3033 27.6401 32.3397 28.3221 32.4056 28.9297C32.3935 29.432 32.4056 29.8833 32.435 30.2867C30.2751 30.1355 28.5714 29.384 27.9348 27.8024C25.8804 22.6971 27.9784 5.9614e-07 36.8166 5.9614e-07C43.1635 -0.00306258 39.1082 11.7994 36.3129 18.4628Z" fill="white"/>
<path d="M48.0544 22.4967C48.0544 23.9023 46.9078 25.3509 45.1842 26.5988C44.9291 26.7846 44.6601 26.9643 44.3818 27.14C44.5821 25.7204 44.2705 24.1683 44.0617 23.3551C44.0454 23.2915 44.0149 23.2332 43.9728 23.1854C43.9308 23.1376 43.8785 23.1017 43.8205 23.081C43.8964 22.8722 43.9605 22.6587 44.0126 22.4415C44.0198 22.412 44.0239 22.3817 44.0246 22.3512C44.0524 21.301 43.904 20.5441 43.7278 20.0421C44.0167 20.1045 44.3147 20.0994 44.6016 20.027C44.617 20.0226 44.6322 20.0172 44.6471 20.011C44.8361 19.9555 45.016 19.8688 45.1805 19.754C45.1921 19.7466 45.2032 19.7386 45.2139 19.7299C45.2371 19.7138 45.2593 19.6957 45.2825 19.6767L45.2946 19.6666C46.5646 19.8052 47.5646 20.4166 47.958 21.806C48.0215 22.0298 48.054 22.2626 48.0544 22.4967Z" fill="white"/>
<path d="M45.6943 18.0033C45.6943 18.0321 45.6943 18.0609 45.6943 18.0887C45.6953 18.1083 45.6953 18.1278 45.6943 18.1474C45.6943 18.1618 45.6943 18.1772 45.6891 18.1917C45.6839 18.2061 45.6808 18.2472 45.6746 18.274C45.6684 18.3008 45.6652 18.3162 45.6601 18.3368C45.6549 18.3574 45.6455 18.3913 45.6362 18.4191C45.6199 18.4697 45.6005 18.5192 45.5781 18.5674C45.5777 18.5704 45.5777 18.5735 45.5781 18.5766C45.5677 18.5982 45.5563 18.6199 45.5449 18.6404C45.5422 18.6468 45.5391 18.653 45.5355 18.659C45.516 18.6944 45.4946 18.7288 45.4712 18.7619L45.4557 18.7845C45.4256 18.8278 45.3924 18.87 45.3581 18.9101C45.3559 18.9113 45.3541 18.9131 45.3529 18.9153L45.2948 18.977L45.2347 19.0357L45.1776 19.0851L45.1662 19.0944C45.1454 19.1119 45.1247 19.1283 45.1029 19.1438C45.0811 19.1592 45.0593 19.1757 45.0375 19.1901L45.0157 19.2045C44.8511 19.31 44.6697 19.3872 44.4793 19.433H44.4897C44.093 19.5193 43.6793 19.4834 43.3037 19.3301L43.2871 19.3229L43.2716 19.3157C43.1056 19.2387 42.954 19.1343 42.8233 19.0069C42.8163 19.0747 42.8024 19.1416 42.7818 19.2066C42.7818 19.2066 43.5922 20.0105 43.5278 22.203C43.5164 22.2472 43.1533 23.6522 42.4529 24.1052C42.8655 23.9109 43.2469 23.6573 43.5849 23.3527C43.89 24.4438 44.6048 27.6512 42.9105 29.082C42.6679 28.9008 42.3817 28.7858 42.0804 28.7485C42.4168 28.9629 42.7056 29.2431 42.9292 29.5719C43.0329 30.0032 43.0817 30.6321 42.4923 30.6785C41.5886 30.7495 41.517 29.3805 41.8262 28.8843C41.8262 28.8843 40.3508 26.9018 42.2537 22.8905L41.9155 22.4037C41.6747 22.0317 41.482 21.6313 41.3417 21.2117C41.3137 21.1201 41.2888 21.0275 41.269 20.9348C41.269 20.9163 41.2607 20.8978 41.2576 20.8782C41.2483 20.8319 41.241 20.7845 41.2348 20.7372C41.2286 20.6898 41.2244 20.6497 41.2213 20.6065C41.2208 20.6027 41.2208 20.5989 41.2213 20.5951C41.2108 20.4442 41.221 20.2925 41.2514 20.1443C41.265 20.0798 41.2837 20.0165 41.3074 19.9549C41.3074 19.9549 36.4059 21.574 36.0013 22.3759C36.0013 22.3759 35.4306 26.2235 34.3837 27.6162C34.3837 27.6162 36.8822 32.1236 35.8363 33.0922C35.8363 33.0922 35.1536 32.5961 34.1544 32.9584C34.1544 32.9584 35.6277 32.8833 35.7792 33.7623C35.6755 34.6054 35.3549 35.9239 34.4563 35.7829C33.1479 35.5698 34.337 33.3043 34.337 33.3043C34.337 33.3043 32.5596 32.9265 32.9965 27.6635L32.9902 27.6409C33.1954 27.8012 33.4357 27.9115 33.6916 27.9631L33.7165 27.9785L33.6875 27.9569C33.3482 27.709 33.0829 27.3747 32.9197 26.9893C32.8535 26.8382 32.8064 26.6795 32.7796 26.5169C32.6281 25.2601 32.6447 23.2652 33.9541 22.0722C33.9541 22.0722 34.1451 19.1901 37.9509 18.2019C38.6238 18.0207 39.31 17.892 40.0032 17.817C40.109 17.8067 40.2128 17.7984 40.3145 17.7923C40.4639 17.783 40.6071 17.7789 40.742 17.7789C40.9598 17.7778 41.1774 17.7908 41.3935 17.818C41.5111 17.8338 41.6211 17.8533 41.7235 17.8767C41.9584 17.9264 42.1825 18.017 42.3855 18.1443C42.3801 18.0982 42.3773 18.0518 42.3772 18.0053C42.3772 17.1819 43.1232 16.52 44.0435 16.52C44.9638 16.52 45.6943 17.1829 45.6943 18.0033Z" fill="#CAC6B9"/>
<path d="M40.9792 28.923L41.0104 29.0404C40.9792 29.081 40.9508 29.1194 40.9243 29.1558C40.8143 29.3001 40.7171 29.4557 40.6341 29.6204C39.1089 32.7586 39.8417 34.9706 39.8531 36.1795C39.8587 36.773 39.2347 36.6628 39.2914 36.1379C39.42 34.9446 39.6696 29.7483 38.0897 30.082C37.9179 30.1124 37.7565 30.192 37.6216 30.3127C37.0014 30.8429 37.0307 32.164 37.0402 32.453C37.0657 33.2149 37.2548 33.8376 37.0241 34.0517C36.9832 34.0829 36.934 34.0985 36.8843 34.0958C36.8345 34.0932 36.7869 34.0726 36.7489 34.0371C36.6156 33.8729 36.7272 33.5174 36.7489 33.4218C36.8017 33.1172 36.8333 32.8086 36.8435 32.4987C36.8577 31.5684 36.6118 31.2514 36.3707 31.0008C36.2762 30.6464 36.157 30.2556 36.0039 29.8252C35.7288 29.0678 35.4186 28.3264 35.0744 27.6039C35.915 26.1226 36.3859 23.0229 36.4681 22.4388C36.7764 22.0344 38.6608 21.155 40.4837 20.4534C40.4837 20.471 40.4837 20.4877 40.4837 20.5043C40.4829 20.5181 40.4829 20.532 40.4837 20.5459C40.4837 20.5937 40.4913 20.6405 40.497 20.6852C40.5026 20.7299 40.5111 20.7954 40.5206 20.8484C40.5206 20.8744 40.5291 20.8983 40.5338 20.917C40.5527 21.0209 40.5764 21.1249 40.6076 21.2288L40.6189 21.2642C40.8072 21.8275 41.0588 22.3628 41.3678 22.8577C40.0365 26.1164 40.6303 28.1028 40.9527 28.8149C40.9612 28.8564 40.9697 28.8907 40.9792 28.923Z" fill="white"/>
<path d="M59.6645 57.268C59.623 56.9728 59.5711 56.3658 60.0111 56.3823C60.451 56.3989 60.7437 57.1152 60.4614 57.9905C60.1792 58.8659 60.7789 59.3262 60.6689 57.8729C60.559 56.4195 61.7066 56.3823 61.7066 56.3823C63.5557 56.3576 65.9568 56.083 65.9651 54.8299C65.9775 52.9058 62.3292 51.9872 59.4487 51.0664C56.5682 50.1457 49.8837 49.13 49.6803 52.7634C49.5745 54.6585 52.2786 55.5421 54.8934 55.955C54.0633 58.0896 51.7805 64.6112 54.6506 66.2937C54.6506 66.2937 55.4268 66.8098 55.1093 67.9886C54.7918 69.1674 55.7547 69.1282 55.46 67.9886C55.2877 67.3259 55.3832 66.6942 55.8896 66.6674H56.012H56.0348C56.6574 66.7644 56.1926 68.3437 55.9954 69.2954C55.8771 69.8735 56.8152 69.987 56.6471 69.0559C56.5142 68.3334 56.3607 66.8016 57.2468 66.2875C57.3395 66.2394 57.4181 66.1683 57.4751 66.0811C59.4528 64.155 58.9797 57.974 58.8095 56.2915L59.3657 56.3039C59.4358 56.3988 59.4793 56.5106 59.4917 56.6278C59.5041 56.745 59.4849 56.8633 59.4362 56.9707C59.183 57.6788 59.7081 57.5611 59.6645 57.268Z" fill="#F5F5F5"/>
<path d="M3.89248 64.8992C3.89248 64.8992 10.1199 52.6403 5.27155 52.6403C0.423199 52.6403 -0.728907 64.774 0.39942 67.4944C0.814437 68.5024 2.06381 68.8801 3.5769 68.8356C3.60283 68.9714 4.34208 68.7592 4.87382 69.2472C5.01865 69.3809 5.1678 69.5846 5.15915 70.0833C5.1483 70.2644 5.12446 70.4445 5.08781 70.6223C5.07832 70.6489 5.07514 70.6772 5.07851 70.7052C5.08188 70.7331 5.09172 70.7599 5.10727 70.7836C5.1311 70.7997 5.15937 70.8084 5.18833 70.8084C5.21728 70.8084 5.24555 70.7997 5.26938 70.7836C5.40556 70.6711 5.25209 70.4101 5.23696 70.0112C5.23696 69.8584 5.25642 69.1624 5.62172 68.8865C5.70093 68.8234 5.79557 68.7817 5.89624 68.7655C6.82354 68.5894 6.74573 71.626 6.70682 71.9252C6.66791 72.2244 6.90351 72.2542 6.94675 72.0738C6.99646 71.8616 6.23127 70.2085 7.39202 68.5236C7.58691 68.2079 7.84502 67.9343 8.15073 67.7194C8.68189 67.4874 9.19297 67.2135 9.67894 66.9003C10.8829 66.1088 11.6243 65.173 11.3412 64.2923C10.4052 61.3512 3.89248 64.8992 3.89248 64.8992Z" fill="#F5F5F5"/>
<path d="M9.27165 58.9795L9.78581 58.6991C12.7529 57.0373 14.6977 51.03 15.3236 48.8405C15.396 48.5902 15.376 48.3214 15.2674 48.0852C15.1587 47.8489 14.9691 47.6617 14.7343 47.5589C11.7307 46.271 4.86577 47.0022 4.88609 49.6569C4.91454 51.111 5.66647 51.6988 6.72933 51.8089C6.72933 51.8089 8.35511 51.9419 7.90396 54.609C7.81657 55.1387 8.02996 55.3008 8.02386 54.5696C8.02386 53.7781 8.30837 52.0769 8.76969 52.0769C9.03591 52.0769 8.92414 52.3656 8.92414 52.6315C8.92414 52.7644 8.8713 52.8953 8.89163 52.9556C8.89825 52.9694 8.90828 52.9813 8.92075 52.9901C8.93322 52.9988 8.94769 53.0041 8.96275 53.0054C8.98068 53.0065 8.9985 53.0018 9.01377 52.9922C9.02904 52.9825 9.04103 52.9683 9.04811 52.9514C9.04811 52.9514 9.04811 52.941 9.04811 52.9348C8.99686 52.6497 9.02358 52.3557 9.12533 52.0852C9.34075 51.5139 10.6617 50.9656 10.6617 50.9656C11.4238 50.6581 12.1391 50.3154 12.7143 50.0204L12.2021 50.3029C9.23304 51.9647 7.28819 57.97 6.66227 60.1615C6.59046 60.4121 6.61098 60.6809 6.71996 60.917C6.82893 61.1532 7.0188 61.3404 7.25365 61.4431C8.19814 61.8051 9.19424 62.0065 10.2024 62.0393L10.2512 62.0497C11.2673 62.2221 12.6899 61.9604 13.2325 62.6729C13.7751 63.3854 12.7854 65.4335 13.2731 65.6516C13.7609 65.8697 13.4763 64.156 13.6145 62.9699C13.7527 61.7838 14.3014 61.8669 14.5128 62.2283C14.6977 62.5399 14.6693 63.296 14.6916 63.7426C14.714 64.1893 14.7831 64.3658 14.8359 63.7177C14.9314 61.9064 15.7016 61.1773 16.0024 60.9592C16.6832 60.5437 17.1059 59.9974 17.1018 59.3368C17.0266 55.4773 11.8058 57.6792 9.27165 58.9795Z" fill="#F5F5F5"/>
<path d="M28.3573 48.2109C24.6459 46.1035 21.6348 54.12 21.0994 55.6575C21.5752 54.2408 21.6799 52.7249 21.4035 51.2558C20.8338 46.4476 17.8099 46.9551 17.8099 46.9551C14.8909 46.9228 16.6641 56.2252 19.0028 58.567C18.9706 58.6422 14.6146 65.8115 18.7886 65.9405H18.8122C19.853 65.9835 19.7052 66.4459 19.6795 66.6029C19.6538 66.7598 19.7695 66.7276 19.7695 66.633C19.7695 66.5383 19.6602 65.9556 19.9836 65.8868C20.307 65.818 20.247 66.433 20.1742 66.9405C20.1014 67.4479 20.3584 67.3705 20.3327 66.9985C20.3061 66.3305 20.4538 65.6671 20.761 65.074C20.7641 65.0679 20.7677 65.0622 20.7717 65.0567C20.7752 65.0471 20.7795 65.0377 20.7846 65.0288C20.849 64.9042 20.9 64.7729 20.9366 64.6374C20.9766 64.4865 21.0088 64.3336 21.033 64.1794C21.3821 62.1129 20.7953 58.8487 20.7953 58.8487C21.4168 58.6145 22.0131 58.3176 22.575 57.9627L22.6328 57.9283C22.8748 57.7885 23.7785 57.3241 23.7357 57.8767C23.6993 58.3369 23.8685 58.6057 23.9177 57.7563C23.9541 57.0897 24.8965 56.2639 24.8965 56.2639C28.1024 53.5394 30.8351 49.6172 28.3573 48.2109Z" fill="#F5F5F5"/>
<path d="M50.765 56.041C48.724 54.7835 46.329 59.2103 48.1187 62.4137C48.1187 62.4137 47.4129 61.4332 45.7499 62.0087C45.7499 62.0087 47.5396 54.7622 44.1412 55.0947C40.8676 55.4165 39.9064 66.0156 45.8545 66.964C46.2538 67.033 46.6567 67.0764 47.061 67.094C48.555 67.1814 48.0664 68.7416 48.0161 68.9888C47.9538 69.3213 47.8794 69.8413 48.2172 69.7262C48.6194 69.5834 48.0041 67.4521 48.4706 67.2731C48.7843 67.1537 49.0618 67.5075 48.909 68.1789C48.7561 68.8503 49.2488 68.684 49.1362 68.0936C48.9351 67.0855 49.6208 66.2863 49.8782 66.0241C53.0533 63.5028 52.3857 57.0427 50.765 56.041Z" fill="#F5F5F5"/>
<path d="M64.904 56.7258C61.3469 56.3846 57.497 62.5577 60.5711 67.8767C60.8393 68.3481 61.166 68.7719 61.5409 69.1345L61.6282 69.217C62.084 69.6607 62.389 70.2752 62.4893 70.9521C62.6367 72.1163 62.1014 72.3616 62.2953 72.7853C62.4893 73.2091 62.9276 72.9794 62.7473 72.3259C62.5669 71.6725 62.6367 70.3188 63.0595 70.3522C63.4823 70.3857 63.7713 70.7157 63.6278 71.271C63.4532 71.9513 63.9207 71.9803 63.9401 71.61C63.9556 71.28 63.3582 70.4325 64.5937 70.2162C64.6829 70.2162 64.7702 70.1961 64.8574 70.1827H64.873C64.9049 70.1801 64.9367 70.1748 64.968 70.1671C67.2954 69.7434 69.1341 67.5221 67.9878 66.7059C66.1181 65.3811 62.8345 66.7795 62.7647 66.8107C62.8132 66.7772 64.1224 65.9298 63.1701 64.4266C64.2756 64.7527 65.4132 64.9124 66.5545 64.9016C66.5545 64.9016 67.1364 64.8905 67.0103 65.4547C66.8842 66.019 66.8959 66.1751 67.1053 66.0992C67.3148 66.0234 66.859 65.1737 67.2333 65.0711C67.6077 64.9686 67.2915 65.6956 67.4467 65.6621C67.7105 65.6064 67.1907 64.9351 67.8055 64.6786L67.8714 64.6541C67.9231 64.6411 67.9728 64.6193 68.0188 64.5894C68.263 64.493 68.4839 64.3317 68.6635 64.1185C68.8432 63.9054 68.9765 63.6464 69.0526 63.3628C69.7179 60.6844 68.4572 57.0648 64.904 56.7258ZM63.909 61.6144C65.1057 61.1349 65.1193 59.7321 65.0514 59.0608C65.2106 60.0609 65.6606 60.9692 66.3276 61.6367C65.4354 61.1862 64.3086 61.485 63.909 61.6144Z" fill="#F5F5F5"/>
<path d="M41.3687 42.0641C34.5387 41.6589 39.7228 52.8039 39.7733 52.91C39.7417 52.893 37.8622 51.9107 36.9129 53.7141C36.9129 53.7141 37.5086 51.7877 37.0708 49.8718C37.0708 49.8718 36.5677 44.2431 32.5939 45.4864C30.0956 46.2671 30.6596 50.9432 32.8044 54.3358C32.876 54.4503 32.9496 54.5628 33.0149 54.6731L33.0738 54.7601C33.4127 55.2672 33.8926 55.6957 33.4695 57.4779C32.9433 59.7035 34.1346 59.4044 34.0231 58.4836C33.8863 57.3443 33.6274 56.0713 34.1683 56.0798C34.7767 56.7114 35.5027 57.2161 36.3046 57.5649C36.3046 57.5649 33.299 63.0812 36.4309 64.6618C36.751 64.8192 37.0086 65.0814 37.1615 65.4056C37.3144 65.7297 37.3537 66.0966 37.2728 66.4462C37.195 66.8981 37.1339 67.5558 37.1339 67.6131C37.1339 67.891 37.256 68.1138 37.4075 68.1138C37.4917 68.1138 37.5654 68.0459 37.618 67.9355C37.6606 67.8335 37.6821 67.7238 37.6812 67.6131C37.6822 67.5961 37.6822 67.5791 37.6812 67.5621C37.6812 67.5197 37.6812 67.4752 37.6643 67.4285C37.5801 66.8662 37.3465 66.0155 37.698 65.6845C38.2347 65.1774 38.7967 65.4999 38.5673 66.0749C38.3379 66.6498 39.0935 66.8365 38.944 66.1682C38.7946 65.4999 38.9293 65.1074 39.365 64.6958C41.2909 63.3761 40.2848 58.7552 39.7439 57.4249C44.4522 54.7834 47.4747 42.4248 41.3687 42.0641Z" fill="#F5F5F5"/>
<path d="M79.4431 60.6955C78.197 58.0962 73.0221 57.7346 73.0221 57.7346C73.6963 57.4043 74.4869 56.2968 74.517 56.0039C74.6133 56.9596 75.137 58.0816 76.351 57.9798C77.6633 57.8697 78.189 56.2885 78.189 56.2885C78.189 56.2885 79.5936 51.7361 75.2032 51.8276C70.8128 51.919 66.0733 57.6453 72.0067 61.7136C73.3772 62.6548 75.9557 63.0683 75.9557 63.0683C73.8127 63.0122 74.0033 64.4687 74.0133 64.5372C73.9892 64.4562 73.2568 62.0439 71.3626 62.3244C69.6029 62.5925 69.0089 66.7916 72.6809 67.2674C72.7663 67.2779 72.8485 67.3077 72.9216 67.3545C72.9947 67.4014 73.0571 67.4642 73.1043 67.5386C73.1515 67.613 73.1825 67.6973 73.195 67.7854C73.2074 67.8735 73.2012 67.9633 73.1766 68.0487C73.0883 68.3188 73.1244 68.5556 73.2709 68.5349C73.4916 68.5037 73.3792 68.0279 73.3792 68.0279C73.2608 67.5064 73.4274 67.2903 73.7464 67.3318C74.0655 67.3734 74.1477 67.7744 73.9631 68.3292C73.6963 69.1021 74.5992 69.1707 74.3143 68.2793C74.249 68.1221 74.2346 67.9473 74.2734 67.781C74.3121 67.6147 74.4018 67.4659 74.529 67.3568C74.6633 67.2466 74.8231 67.175 74.9925 67.149C79.0619 66.374 80.5808 63.0807 79.4431 60.6955Z" fill="#F5F5F5"/>
</svg>
