<svg width="555" height="212" viewBox="0 0 555 212" fill="none" xmlns="http://www.w3.org/2000/svg">
<path d="M410.025 106.917C409.745 104.827 409.395 100.546 412.363 100.649C415.331 100.751 417.291 105.836 415.387 112.045C413.483 118.255 417.543 121.484 416.787 111.212C416.031 100.941 423.787 100.649 423.787 100.649C436.261 100.459 452.459 98.5154 452.515 89.6465C452.599 76.0289 427.987 69.5269 408.555 63.025C389.123 56.523 344.03 49.3198 342.658 75.0207C341.944 88.4338 360.185 94.6873 377.811 97.6241C372.211 112.717 356.811 158.889 376.187 170.782C376.187 170.782 381.409 174.449 379.281 182.792C377.153 191.135 383.635 190.843 381.647 182.792C380.485 178.088 381.129 173.617 384.545 173.441H385.371H385.511C389.781 174.113 386.589 185.291 385.259 192.041C384.461 196.118 390.789 196.921 389.655 190.346C388.759 185.218 387.723 174.376 393.701 170.738C394.326 170.397 394.857 169.894 395.241 169.277C408.583 155.63 405.391 111.899 404.243 99.9766C405.797 99.9766 407.043 99.9766 407.995 100.064C408.467 100.737 408.759 101.528 408.843 102.357C408.927 103.186 408.798 104.023 408.471 104.784C406.777 109.824 410.319 109.065 410.025 106.917Z" fill="#F5F5F5"/>
<path d="M27.8797 158.926C27.8797 158.926 72.3613 76.2683 37.7301 76.2683C3.09899 76.2683 -5.13031 158.153 2.92919 176.495C5.8936 183.296 14.8177 185.844 25.6255 185.529C25.8107 186.446 31.0911 185.014 34.8892 188.321C35.9083 189.223 36.989 190.598 36.9273 193.948C36.8431 195.17 36.6729 196.384 36.4178 197.585C36.3406 197.943 36.2634 198.416 36.5568 198.673C36.7261 198.784 36.9284 198.844 37.1357 198.844C37.3431 198.844 37.5454 198.784 37.7147 198.673C38.6874 197.9 37.5912 196.153 37.4831 193.447C37.4831 192.431 37.6221 187.72 40.2314 185.873C40.7928 185.438 41.4701 185.151 42.1922 185.043C48.8004 183.868 48.26 204.343 47.9666 206.362C47.6733 208.381 49.3871 208.581 49.6805 207.379C50.051 205.947 44.5854 194.793 52.8765 183.41C54.2719 181.286 56.1151 179.446 58.2958 177.998C62.0877 176.474 65.7385 174.663 69.2116 172.586C77.8115 167.245 83.1073 160.945 81.0847 154.989C74.3993 135.001 27.8797 158.926 27.8797 158.926Z" fill="#EECFED" fillOpacity="0.8"/>
<path d="M64.3877 121.367L68.205 119.338C89.9057 107.405 104.12 64.2805 108.695 48.5433C109.22 46.7438 109.07 44.8134 108.274 43.1175C107.477 41.4215 106.089 40.0775 104.373 39.3395C82.4345 30.106 32.2599 35.3568 32.3936 54.4056C32.6164 64.8473 38.1121 69.0688 45.8655 69.8594C45.8655 69.8594 57.7482 70.7991 54.4508 89.9523C53.8121 93.771 55.3717 94.9196 55.3271 89.6689C55.3271 84.0005 57.4066 71.7687 60.7783 71.7687C62.7241 71.7687 61.9072 73.8422 61.9072 75.7515C61.9072 76.7211 61.521 77.6609 61.6695 78.0785C61.7181 78.1903 61.798 78.2854 61.8996 78.3522C62.0012 78.419 62.1199 78.4547 62.2414 78.4547C62.3628 78.4547 62.4816 78.419 62.5832 78.3522C62.6848 78.2854 62.7647 78.1903 62.8132 78.0785C62.8132 78.0785 62.8132 78.004 62.8132 77.9741C62.455 75.9203 62.6552 73.8074 63.3925 71.8582C64.967 67.7561 74.6217 63.833 74.6217 63.833C80.1917 61.6253 85.4052 59.1789 89.6236 57.0607L85.8657 59.0745C64.1798 71.008 49.9651 114.132 45.3903 129.87C44.8611 131.667 45.0074 133.598 45.8014 135.294C46.5954 136.991 47.9819 138.335 49.6977 139.073C56.5806 141.643 63.8358 143.064 71.1757 143.28H71.5173C78.944 144.533 89.3413 142.639 93.322 147.83C97.3027 153.021 90.0543 167.639 93.6191 169.205C97.1839 170.772 95.1044 158.48 96.1145 149.963C97.1245 141.445 101.12 142.027 102.68 144.622C104.031 146.86 103.823 152.305 103.987 155.497C104.15 158.689 104.655 159.897 105.041 155.318C105.725 142.325 111.369 137.075 113.567 135.508C118.543 132.525 121.633 128.602 121.588 123.858C121.068 96.1876 82.9098 112.029 64.3877 121.367Z" fill="#F5F5F5"/>
<path d="M197.745 43.7809C172.326 29.0628 151.731 85.0664 148.051 95.7896C151.314 85.8963 152.036 75.3089 150.147 65.0469C146.248 31.4657 125.55 35.0101 125.55 35.0101C105.555 34.7848 117.707 99.7544 133.715 116.109C133.495 116.635 103.678 166.691 132.249 167.608H132.41C139.534 167.923 138.523 171.137 138.347 172.233C138.171 173.33 138.963 173.119 138.963 172.443C138.963 171.768 138.2 167.713 140.428 167.232C142.657 166.751 142.232 171.047 141.733 174.591C141.235 178.135 142.994 177.595 142.818 174.997C142.633 170.335 143.644 165.706 145.75 161.57V161.435L145.852 161.24C146.29 160.362 146.638 159.441 146.893 158.491C147.167 157.437 147.387 156.37 147.553 155.292C149.942 140.875 145.911 118.077 145.911 118.077C150.161 116.438 154.242 114.37 158.093 111.904L158.488 111.664C160.145 110.688 166.331 107.459 166.038 111.304C165.789 114.518 166.947 116.41 167.269 110.478C167.533 105.822 173.983 100.055 173.983 100.055C196.001 80.9213 214.706 53.5278 197.745 43.7809Z" fill="#F5F5F5"/>
<path d="M353.705 99.4068C339.25 91.0893 322.304 120.356 334.978 141.558C334.978 141.558 329.979 135.073 318.202 138.866C318.202 138.866 330.876 90.9342 306.81 93.1475C283.625 95.2763 276.818 165.369 318.943 171.642C321.771 172.099 324.624 172.386 327.487 172.502C338.068 173.08 334.608 183.414 334.252 185.049C333.81 187.248 333.269 190.688 335.676 189.913C338.524 188.982 334.166 174.871 337.47 173.701C339.692 172.897 341.657 175.251 340.574 179.692C339.492 184.133 342.981 183.033 342.184 179.128C340.76 172.46 345.616 167.174 347.439 165.44C369.925 148.748 365.197 106.019 353.705 99.4068Z" fill="#EECFED" fillOpacity="0.8"/>
<path d="M449.248 106.088C421.035 103.867 390.483 144.061 414.863 178.666C417.001 181.723 419.593 184.475 422.559 186.838L423.252 187.361C426.869 190.249 429.289 194.248 430.086 198.654C431.255 206.231 427.007 207.828 428.547 210.6C430.086 213.373 433.58 211.849 432.148 207.596C430.717 203.343 431.271 194.532 434.626 194.749C437.982 194.967 440.26 197.115 439.136 200.73C437.751 205.172 441.46 205.346 441.599 202.936C441.737 200.788 436.981 195.286 446.801 193.864C447.494 193.864 448.202 193.733 448.894 193.646H449.017C449.272 193.636 449.524 193.602 449.772 193.545C468.242 190.801 482.833 176.329 473.721 171.031C458.899 162.409 432.841 171.51 432.287 171.699C432.672 171.495 443.061 165.979 435.504 156.181C444.277 158.303 453.305 159.347 462.362 159.288C462.362 159.288 466.98 159.201 465.964 162.873C464.948 166.546 465.071 167.562 466.733 167.083C468.396 166.604 464.779 161.059 467.749 160.376C470.72 159.694 468.211 164.441 469.442 164.223C471.52 163.875 467.411 159.505 472.29 157.822L472.813 157.662C473.225 157.585 473.621 157.442 473.983 157.241C475.92 156.617 477.673 155.57 479.099 154.185C480.524 152.8 481.583 151.116 482.187 149.272C487.466 131.926 477.461 108.309 449.248 106.088ZM441.368 137.921C450.864 134.785 450.972 125.655 450.433 121.286C451.693 127.797 455.265 133.709 460.561 138.051C453.481 135.119 444.538 137.079 441.368 137.921Z" fill="#F5F5F5"/>
<path d="M286.034 0.0746774C237.573 -2.74428 274.356 75.1776 274.699 75.9194C274.49 75.8156 261.154 68.9314 254.419 81.5425C254.419 81.5425 258.645 68.0709 255.539 54.6883C255.539 54.6883 251.97 15.3267 223.774 24.0061C206.047 29.466 210.035 62.1659 225.267 85.9045L226.835 88.2635C226.985 88.4712 227.134 88.6641 227.269 88.8718C229.673 92.4326 233.078 95.4296 230.076 107.892C226.343 123.456 234.795 121.349 234.004 114.925C233.033 106.958 231.181 98.0557 235.034 98.1002C239.347 102.522 244.499 106.052 250.192 108.486C250.192 108.486 228.867 147.135 251.089 158.114C253.359 159.215 255.187 161.048 256.272 163.315C257.357 165.582 257.636 168.147 257.062 170.592C256.51 173.752 256.076 178.351 256.076 178.752C256.076 180.696 256.943 182.268 258.018 182.268C258.615 182.268 259.138 181.779 259.511 181.022C259.827 180.307 259.985 179.533 259.974 178.752C259.982 178.638 259.982 178.524 259.974 178.411C259.974 178.114 259.974 177.803 259.855 177.476C259.257 173.559 257.6 167.595 260.094 165.28C263.902 161.734 267.874 163.99 266.262 168.025C264.649 172.061 269.995 173.352 268.935 168.678C267.874 164.004 268.815 161.26 271.922 158.292C285.586 149.049 278.448 116.75 274.61 107.432C307.913 89.0202 329.358 2.5969 286.034 0.0746774Z" fill="#29C0CC" fillOpacity="0.9"/>
<path d="M551.993 128.211C543.016 110.336 505.739 107.85 505.739 107.85C510.595 105.593 516.29 97.977 516.507 95.948C517.201 102.521 520.974 110.236 529.718 109.55C539.157 108.793 542.959 97.9055 542.959 97.9055C542.959 97.9055 553.077 66.6141 521.451 67.2285C489.825 67.8429 455.683 107.164 498.425 135.212C508.297 141.685 526.856 144.543 526.856 144.543C511.434 144.143 512.807 154.159 512.879 154.644C512.706 154.073 507.43 137.498 493.785 139.413C481.109 141.256 476.83 170.147 503.282 173.419C503.898 173.489 504.491 173.692 505.019 174.014C505.547 174.335 505.997 174.767 506.338 175.28C506.679 175.792 506.901 176.372 506.99 176.979C507.079 177.586 507.031 178.205 506.852 178.792C506.216 180.649 506.476 182.278 507.531 182.135C509.107 181.921 508.312 178.649 508.312 178.649C507.459 175.062 508.658 173.576 510.942 173.862C513.226 174.148 513.833 176.906 512.518 180.721C510.595 186.05 517.1 186.522 515.047 180.392C514.572 179.312 514.466 178.109 514.745 176.964C515.024 175.819 515.673 174.795 516.594 174.048C517.562 173.292 518.713 172.799 519.933 172.619C549.29 167.275 560.188 144.628 551.993 128.211Z" fill="#EECFED" fillOpacity="0.8"/>
</svg>
