<svg width="373" height="391" viewBox="0 0 373 391" fill="none" xmlns="http://www.w3.org/2000/svg">
<g filter="url(#filter0_di_48_424)">
<path d="M199.724 169.731V98.8304L334.961 98.7848L335.167 98.7848L335.314 98.6388L371.353 62.6891L371.708 62.3352L371.353 61.9812L335.314 26.0306L335.167 25.8846H334.96H199.724V1V0.5H199.224H173.776H173.276V1V97.8095L38.0394 97.8305L37.8327 97.8306L37.6864 97.9765L1.64689 133.926L1.29201 134.28L1.64688 134.634L37.6864 170.585L37.8328 170.731H38.0395H173.276V386V386.5H173.776H199.224H199.724V386V242.652L334.961 242.631L335.167 242.631L335.314 242.485L371.353 206.535L371.708 206.181L371.353 205.827L335.314 169.877L335.167 169.731H334.96H199.724Z" fill="#EECFED" fill-opacity="0.8" stroke="black"/>
</g>
<defs>
<filter id="filter0_di_48_424" x="0.583984" y="0" width="371.832" height="391" filterUnits="userSpaceOnUse" color-interpolation-filters="sRGB">
<feFlood flood-opacity="0" result="BackgroundImageFix"/>
<feColorMatrix in="SourceAlpha" type="matrix" values="0 0 0 0 0 0 0 0 0 0 0 0 0 0 0 0 0 0 127 0" result="hardAlpha"/>
<feOffset dy="4"/>
<feComposite in2="hardAlpha" operator="out"/>
<feColorMatrix type="matrix" values="0 0 0 0 0.858824 0 0 0 0 0.52549 0 0 0 0 0.862745 0 0 0 1 0"/>
<feBlend mode="normal" in2="BackgroundImageFix" result="effect1_dropShadow_48_424"/>
<feBlend mode="normal" in="SourceGraphic" in2="effect1_dropShadow_48_424" result="shape"/>
<feColorMatrix in="SourceAlpha" type="matrix" values="0 0 0 0 0 0 0 0 0 0 0 0 0 0 0 0 0 0 127 0" result="hardAlpha"/>
<feOffset dy="4"/>
<feGaussianBlur stdDeviation="2"/>
<feComposite in2="hardAlpha" operator="arithmetic" k2="-1" k3="1"/>
<feColorMatrix type="matrix" values="0 0 0 0 0 0 0 0 0 0 0 0 0 0 0 0 0 0 0.25 0"/>
<feBlend mode="normal" in2="shape" result="effect2_innerShadow_48_424"/>
</filter>
</defs>
</svg>
