<svg width="53" height="43" viewBox="0 0 53 43" fill="none" xmlns="http://www.w3.org/2000/svg">
<path d="M16.7465 42.1883C36.3409 42.1883 47.0553 25.9542 47.0553 11.8794C47.0553 11.4188 47.0553 10.9581 47.0265 10.5016C49.1112 8.99307 50.9107 7.1254 52.3406 4.98603C50.3972 5.84798 48.3356 6.41364 46.2245 6.66414C48.4474 5.33158 50.1107 3.23711 50.9051 0.770183C48.8137 2.0117 46.5254 2.88665 44.1392 3.35727C42.5333 1.64967 40.4093 0.518969 38.096 0.140147C35.7827 -0.238675 33.409 0.155504 31.3423 1.26168C29.2756 2.36786 27.6311 4.12437 26.6633 6.25937C25.6954 8.39438 25.4583 10.7888 25.9885 13.0722C21.7531 12.86 17.6097 11.7595 13.8273 9.84206C10.0448 7.92463 6.70793 5.23316 4.03319 1.94239C2.66957 4.28687 2.25078 7.06294 2.86209 9.70535C3.47341 12.3478 5.06886 14.6578 7.3236 16.1652C5.64 16.1083 3.99436 15.65 2.52371 14.8285V14.9642C2.52342 17.4209 3.37194 19.8023 4.92566 21.7053C6.47938 23.6083 8.64288 24.916 11.05 25.4072C9.48085 25.8346 7.83458 25.8965 6.23776 25.5881C6.91762 27.706 8.24265 29.5584 10.0274 30.8859C11.8122 32.2134 13.9673 32.9496 16.1913 32.9916C12.4155 35.9485 7.75549 37.5506 2.95969 37.5406C2.11024 37.5411 1.2615 37.4916 0.417847 37.3925C5.28877 40.5213 10.9573 42.1818 16.7465 42.176" fill="#F5F5F5"/>
</svg>
